<svg width="148" height="32" viewBox="0 0 148 32" fill="none" xmlns="http://www.w3.org/2000/svg">
<path d="M20.0834 25.061V7.9291H25.0885V25.061H20.0834ZM22.5859 5.54081C21.6662 5.54081 20.9176 5.27545 20.3401 4.74472C19.7625 4.21399 19.4738 3.55589 19.4738 2.77041C19.4738 1.98493 19.7625 1.32682 20.3401 0.796095C20.9176 0.265365 21.6662 0 22.5859 0C23.5057 0 24.2543 0.254751 24.8318 0.764252C25.4094 1.25252 25.6981 1.8894 25.6981 2.67488C25.6981 3.50281 25.4094 4.19276 24.8318 4.74472C24.2757 5.27545 23.5271 5.54081 22.5859 5.54081Z" fill="white"/>
<path d="M40.2252 7.67435C41.5942 7.67435 42.8134 7.95033 43.8828 8.50228C44.9737 9.03301 45.8293 9.86095 46.4496 10.9861C47.0699 12.09 47.38 13.5124 47.38 15.2532V25.061H42.3749V16.0174C42.3749 14.6375 42.0647 13.6185 41.4444 12.9604C40.8455 12.3023 39.9899 11.9733 38.8777 11.9733C38.0863 11.9733 37.3697 12.1431 36.7281 12.4828C36.1078 12.8012 35.6158 13.3001 35.2522 13.9794C34.9099 14.6587 34.7388 15.5291 34.7388 16.5906V25.061H29.7337V7.9291H34.5142V12.6738L33.6159 11.2408C34.2362 10.0945 35.1238 9.21346 36.2789 8.59782C37.4339 7.98217 38.7494 7.67435 40.2252 7.67435Z" fill="white"/>
<path d="M58.9754 25.3158C56.9434 25.3158 55.3606 24.8063 54.227 23.7873C53.0933 22.7471 52.5265 21.2079 52.5265 19.1699V4.13969H57.5316V19.1063C57.5316 19.828 57.7241 20.3906 58.1091 20.794C58.4942 21.1761 59.0182 21.3672 59.6813 21.3672C60.4727 21.3672 61.1465 21.1549 61.7026 20.7303L63.0501 24.2331C62.5368 24.594 61.9165 24.87 61.1892 25.061C60.4834 25.2309 59.7454 25.3158 58.9754 25.3158ZM49.8635 12.1325V8.31122H61.8309V12.1325H49.8635Z" fill="white"/>
<path d="M73.8936 25.3158C71.9257 25.3158 70.1932 24.9337 68.6959 24.1694C67.2201 23.4052 66.0757 22.3649 65.2629 21.0487C64.4501 19.7113 64.0437 18.1934 64.0437 16.4951C64.0437 14.7755 64.4394 13.2576 65.2308 11.9414C66.0436 10.604 67.1452 9.56374 68.5355 8.82072C69.9258 8.05647 71.4979 7.67435 73.2519 7.67435C74.9417 7.67435 76.4603 8.03524 77.8078 8.75703C79.1768 9.4576 80.2569 10.4766 81.0483 11.814C81.8397 13.1302 82.2355 14.7118 82.2355 16.5588C82.2355 16.7498 82.2248 16.9727 82.2034 17.2275C82.182 17.461 82.1606 17.6839 82.1392 17.8962H68.1184V14.9984H79.5083L77.5832 15.8582C77.5832 14.9666 77.4014 14.1917 77.0378 13.5336C76.6742 12.8755 76.1715 12.366 75.5299 12.0051C74.8882 11.623 74.1395 11.4319 73.284 11.4319C72.4284 11.4319 71.6691 11.623 71.006 12.0051C70.3643 12.366 69.8617 12.8861 69.498 13.5654C69.1344 14.2235 68.9526 15.009 68.9526 15.9219V16.6861C68.9526 17.6202 69.1558 18.4482 69.5622 19.1699C69.99 19.8705 70.5782 20.4118 71.3268 20.794C72.0969 21.1549 72.9952 21.3353 74.0219 21.3353C74.9416 21.3353 75.7438 21.1973 76.4282 20.9214C77.1341 20.6454 77.7757 20.2314 78.3533 19.6794L81.0163 22.5454C80.2248 23.437 79.2302 24.127 78.0324 24.6152C76.8346 25.0823 75.455 25.3158 73.8936 25.3158Z" fill="white"/>
<path d="M85.5677 25.061V7.9291H90.3482V12.7693L89.6745 11.3682C90.1878 10.1582 91.0113 9.24531 92.145 8.62966C93.2786 7.99278 94.6582 7.67435 96.2838 7.67435V12.2598C96.0699 12.2386 95.8774 12.228 95.7063 12.228C95.5352 12.2068 95.3534 12.1962 95.1609 12.1962C93.7919 12.1962 92.6797 12.5889 91.8241 13.3744C90.9899 14.1386 90.5728 15.3381 90.5728 16.9727V25.061H85.5677Z" fill="white"/>
<path d="M99.2599 25.061V7.9291H104.04V12.7693L103.367 11.3682C103.88 10.1582 104.703 9.24531 105.837 8.62966C106.971 7.99278 108.35 7.67435 109.976 7.67435V12.2598C109.762 12.2386 109.57 12.228 109.398 12.228C109.227 12.2068 109.046 12.1962 108.853 12.1962C107.484 12.1962 106.372 12.5889 105.516 13.3744C104.682 14.1386 104.265 15.3381 104.265 16.9727V25.061H99.2599Z" fill="white"/>
<path d="M121.009 25.3158C119.169 25.3158 117.533 24.9337 116.1 24.1694C114.688 23.4052 113.565 22.3649 112.731 21.0487C111.918 19.7113 111.512 18.1934 111.512 16.4951C111.512 14.7755 111.918 13.2576 112.731 11.9414C113.565 10.604 114.688 9.56374 116.1 8.82072C117.533 8.05647 119.169 7.67435 121.009 7.67435C122.827 7.67435 124.453 8.05647 125.886 8.82072C127.319 9.56374 128.442 10.5934 129.255 11.9096C130.067 13.2258 130.474 14.7543 130.474 16.4951C130.474 18.1934 130.067 19.7113 129.255 21.0487C128.442 22.3649 127.319 23.4052 125.886 24.1694C124.453 24.9337 122.827 25.3158 121.009 25.3158ZM121.009 21.2398C121.843 21.2398 122.592 21.0487 123.255 20.6666C123.918 20.2845 124.442 19.7431 124.827 19.0426C125.212 18.3208 125.404 17.4716 125.404 16.4951C125.404 15.4973 125.212 14.6481 124.827 13.9476C124.442 13.247 123.918 12.7057 123.255 12.3235C122.592 11.9414 121.843 11.7503 121.009 11.7503C120.175 11.7503 119.426 11.9414 118.763 12.3235C118.1 12.7057 117.565 13.247 117.159 13.9476C116.774 14.6481 116.581 15.4973 116.581 16.4951C116.581 17.4716 116.774 18.3208 117.159 19.0426C117.565 19.7431 118.1 20.2845 118.763 20.6666C119.426 21.0487 120.175 21.2398 121.009 21.2398Z" fill="white"/>
<path d="M0 31.1579V0H8.76294V4.06118H5.04435V27.0967H8.76294V31.1579H0Z" fill="#DEF81D"/>
<path d="M148 31.1579H139.269V27.0967H142.956V4.06118H139.269V0H148V31.1579Z" fill="#DEF81D"/>
</svg>
