<svg width="15" height="15" viewBox="0 0 15 15" fill="none" xmlns="http://www.w3.org/2000/svg">
<path fill-rule="evenodd" clip-rule="evenodd" d="M6.91594 0.110156C6.57478 0.269929 0.219259 6.63795 0.0904995 6.94904C-0.0319664 7.2451 -0.0299078 7.71884 0.0952638 8.03117C0.282492 8.49833 0.846058 8.86391 1.37886 8.86391H1.59262V11.2609C1.59262 13.9271 1.60021 13.9892 1.97966 14.4317C2.09195 14.5627 2.33535 14.7442 2.52058 14.8349L2.85727 15H4.31804H5.77875L5.92092 14.8352L6.06303 14.6705L6.06327 12.7507C6.06344 10.9288 6.0695 10.8211 6.1822 10.6366C6.36643 10.335 6.5913 10.2732 7.50415 10.2732C8.417 10.2732 8.64187 10.335 8.8261 10.6366C8.9388 10.8211 8.94486 10.9288 8.94504 12.7507L8.94527 14.6705L9.08738 14.8352L9.22955 15L10.6903 14.9998C12.0476 14.9996 12.1698 14.9908 12.4157 14.8769C12.8144 14.6923 13.0369 14.4756 13.2358 14.0781L13.4157 13.7188V11.2913V8.86391H13.6294C14.1488 8.86391 14.6866 8.52793 14.8929 8.0745C15.0269 7.78015 15.0367 7.23677 14.9136 6.939C14.7888 6.63731 8.42417 0.265525 8.09236 0.110156C7.94413 0.0407506 7.7265 0 7.50415 0C7.28181 0 7.06417 0.0407506 6.91594 0.110156ZM10.9299 4.06426C14.022 7.15092 14.1215 7.25732 14.1215 7.47264C14.1215 7.6303 14.0796 7.73675 13.9771 7.83898C13.8463 7.96969 13.7856 7.98314 13.3275 7.98314C12.8694 7.98314 12.8086 7.99658 12.6778 8.12729L12.5334 8.27138L12.533 10.9311C12.5325 14.3533 12.6687 14.0845 10.9337 14.0878L9.83394 14.0899L9.81606 12.3136C9.79565 10.2854 9.79377 10.277 9.26267 9.81028C8.8668 9.46243 8.57199 9.39238 7.50415 9.39238C6.43631 9.39238 6.1415 9.46243 5.74563 9.81028C5.21453 10.277 5.21265 10.2854 5.19224 12.3136L5.17436 14.0899L4.07464 14.0878C2.88257 14.0855 2.78892 14.065 2.5894 13.763C2.48123 13.5992 2.4757 13.4612 2.47535 10.9311L2.47494 8.27138L2.33053 8.12729C2.19965 7.99658 2.13895 7.98314 1.68085 7.98314C1.22275 7.98314 1.16205 7.96969 1.03117 7.83898C0.928702 7.73675 0.886762 7.6303 0.886762 7.47264C0.886762 7.25732 0.986346 7.15092 4.0784 4.06426C7.22534 0.922821 7.27334 0.878194 7.50415 0.878194C7.73497 0.878194 7.78296 0.922821 10.9299 4.06426Z" fill="#676767"/>
</svg>
