<svg width="13" height="16" viewBox="0 0 13 16" fill="none" xmlns="http://www.w3.org/2000/svg">
<path fill-rule="evenodd" clip-rule="evenodd" d="M5.36917 0.13155C5.27871 0.225161 5.20922 0.420658 5.16309 0.711522C4.90958 2.30942 4.20797 3.4135 2.77325 4.47249C1.24079 5.60353 0.337288 6.99866 0.0615853 8.6597C-0.0641037 9.41692 0.00945152 10.6766 0.219858 11.3703C0.558083 12.4853 1.0158 13.2552 1.83485 14.087C2.68434 14.9497 3.68895 15.5239 4.90177 15.8401C5.43485 15.979 5.64674 16 6.51553 16C7.38432 16 7.59621 15.979 8.12929 15.8401C9.34212 15.5239 10.3467 14.9497 11.1962 14.087C12.0221 13.2482 12.5467 12.3568 12.8503 11.2763C12.9795 10.8163 13 10.5975 13 9.67744C13 8.75738 12.9795 8.53862 12.8503 8.0786C12.5697 7.07979 12.0344 6.14074 11.3158 5.38647C11.0172 5.07309 10.9172 5.00632 10.7461 5.00632C10.5075 5.00632 10.3834 5.12162 10.0711 5.63331C9.95527 5.82298 9.76286 6.09052 9.64337 6.22783L9.42619 6.4775V5.72479C9.42619 4.8764 9.31456 4.24897 9.02544 3.47256C8.53856 2.16496 7.51401 0.968653 6.2537 0.236259C5.77024 -0.044698 5.56325 -0.0692136 5.36917 0.13155ZM6.54296 1.59364C7.3129 2.19048 8.06645 3.40704 8.32667 4.47337C8.5203 5.26702 8.48068 6.49205 8.23679 7.24977C8.14484 7.53537 8.08736 7.81752 8.10891 7.87677C8.24821 8.25898 8.59643 8.30375 9.06867 8.00022C9.50258 7.72134 10.2017 7.07108 10.5455 6.62666L10.8304 6.25837L10.9894 6.46308C11.6927 7.36878 12.0644 8.48044 12.0644 9.67744C12.0644 12.1304 10.4891 14.1606 8.0187 14.8915C7.51498 15.0405 7.34574 15.0594 6.51553 15.0594C5.68533 15.0594 5.51609 15.0405 5.01236 14.8915C3.64069 14.4857 2.58859 13.7276 1.84323 12.608C0.774231 11.0022 0.670673 8.91746 1.57534 7.21535C1.96376 6.48452 2.4649 5.9053 3.14987 5.39549C4.72169 4.22558 5.60868 3.01567 6.00097 1.50618C6.0511 1.31312 6.09356 1.25124 6.14827 1.29118C6.1906 1.32203 6.36816 1.45815 6.54296 1.59364Z" fill="#676767"/>
</svg>
